<?xml version="1.0" standalone="no"?>
<!DOCTYPE svg PUBLIC "-//W3C//DTD SVG 20010904//EN"
 "http://www.w3.org/TR/2001/REC-SVG-20010904/DTD/svg10.dtd">
<svg version="1.0" xmlns="http://www.w3.org/2000/svg"
 width="200.000000pt" height="200.000000pt" viewBox="0 0 200.000000 200.000000"
 preserveAspectRatio="xMidYMid meet">

<g transform="translate(0.000000,200.000000) scale(0.100000,-0.100000)"
fill="#000000" stroke="none">
<path d="M0 1000 l0 -1000 1000 0 1000 0 0 1000 0 1000 -1000 0 -1000 0 0
-1000z m1255 475 c29 -28 31 -42 9 -73 -18 -26 -65 -30 -88 -6 -24 23 -20 70
6 88 31 22 45 20 73 -9z m-421 -81 c22 -8 20 -51 -2 -63 -37 -20 -70 27 -40
57 14 14 20 14 42 6z m104 -16 c16 -16 15 -23 -4 -42 -12 -12 -20 -13 -35 -6
-10 6 -19 16 -19 23 0 16 20 37 35 37 6 0 16 -5 23 -12z m-198 -18 c8 -14 8
-26 0 -40 -19 -35 -80 -20 -80 20 0 40 61 55 80 20z m278 -23 c4 -20 -25 -34
-40 -19 -15 15 -1 44 19 40 10 -2 19 -11 21 -21z m244 -19 c24 -20 28 -44 12
-67 -21 -29 -60 -27 -80 4 -15 23 -15 27 0 50 18 27 43 32 68 13z m-184 -21
c2 -11 -3 -17 -17 -17 -23 0 -35 15 -26 31 10 15 39 6 43 -14z m327 -7 c24
-27 13 -68 -22 -76 -34 -9 -57 6 -61 42 -6 49 49 72 83 34z m-535 -45 c0 -15
-7 -26 -20 -30 -41 -13 -70 43 -33 64 25 13 53 -5 53 -34z m94 10 c7 -20 -18
-49 -38 -42 -25 10 -32 38 -12 53 20 14 42 9 50 -11z m152 14 c10 -17 -13 -36
-27 -22 -12 12 -4 33 11 33 5 0 12 -5 16 -11z m-366 -13 c6 -8 10 -25 8 -38
-2 -18 -10 -24 -35 -26 -28 -3 -33 1 -39 23 -11 45 37 75 66 41z m274 -12 c19
-7 21 -40 4 -47 -29 -10 -53 25 -31 46 8 8 8 8 27 1z m-394 -34 c23 -23 25
-40 8 -62 -20 -24 -44 -28 -67 -12 -27 20 -27 59 1 78 29 20 34 20 58 -4z
m467 -16 c8 -22 -18 -37 -36 -20 -7 8 -10 19 -7 25 10 16 36 13 43 -5z m144
-14 c26 -14 25 -56 -2 -70 -41 -23 -80 20 -53 58 17 25 27 27 55 12z m137 -22
c34 -34 -6 -90 -48 -68 -35 19 -20 80 20 80 9 0 21 -5 28 -12z m-463 -33 c0
-27 -3 -30 -30 -30 -21 0 -31 5 -33 18 -6 33 6 49 35 45 24 -3 28 -8 28 -33z
m-115 5 c17 -17 18 -24 10 -41 -15 -27 -34 -33 -59 -19 -26 13 -28 55 -3 69
24 15 29 14 52 -9z m209 2 c12 -22 -3 -42 -31 -42 -24 0 -34 26 -18 45 17 20
37 19 49 -3z m472 -12 c28 -16 25 -58 -6 -72 -19 -8 -28 -8 -40 2 -18 15 -20
51 -3 68 15 15 24 15 49 2z m-396 -25 c0 -30 -39 -27 -43 3 -3 20 0 23 20 20
15 -2 23 -10 23 -23z m-403 -12 c24 -21 23 -45 -2 -68 -29 -27 -74 -10 -78 28
-6 52 41 76 80 40z m527 -32 c13 -24 -8 -55 -34 -50 -23 5 -40 32 -32 53 9 22
54 20 66 -3z m122 -1 c31 -17 18 -70 -17 -70 -14 0 -44 27 -44 40 0 9 28 40
36 40 3 0 14 -5 25 -10z m-771 -50 c55 -55 -24 -135 -82 -83 -25 23 -23 68 4
87 30 21 54 20 78 -4z m355 -5 c0 -23 -34 -33 -45 -14 -13 20 1 40 24 37 13
-2 21 -10 21 -23z m540 -5 c4 -12 1 -27 -5 -35 -27 -33 -78 -5 -65 35 4 14 15
20 35 20 20 0 31 -6 35 -20z m-301 -22 c16 -27 -14 -54 -43 -39 -24 13 -27 31
-9 49 16 16 38 12 52 -10z m-326 -5 c5 -17 -26 -29 -40 -15 -6 6 -7 15 -3 22
9 14 37 9 43 -7z m-78 -14 c0 -12 -29 -24 -37 -16 -3 4 -3 13 0 21 6 16 37 11
37 -5z m534 -2 c9 -14 7 -21 -7 -32 -25 -18 -47 -9 -47 19 0 40 32 48 54 13z
m-360 -3 c21 -8 21 -50 0 -58 -9 -4 -23 -1 -30 5 -17 14 -18 46 -1 52 6 3 13
6 14 6 1 1 8 -2 17 -5z m467 -30 c9 -11 10 -20 3 -32 -15 -23 -29 -25 -48 -7
-12 12 -13 21 -6 36 13 23 33 25 51 3z m-563 -18 c6 -29 -15 -43 -35 -24 -14
14 -14 20 -3 33 16 19 34 15 38 -9z m257 -1 c0 -30 -39 -27 -43 3 -3 20 0 23
20 20 15 -2 23 -10 23 -23z m-348 -1 c8 -22 -18 -37 -36 -20 -7 8 -10 19 -7
25 10 16 36 13 43 -5z m493 -13 c0 -5 -7 -14 -16 -21 -12 -11 -18 -10 -31 3
-23 22 0 52 28 36 10 -5 19 -13 19 -18z m-252 -23 c19 -19 14 -56 -8 -63 -41
-13 -69 43 -32 64 22 13 26 13 40 -1z m182 -14 c0 -20 -30 -30 -40 -13 -11 17
7 40 26 32 8 -3 14 -12 14 -19z m168 -8 c-2 -13 -10 -21 -23 -21 -23 0 -33 34
-14 45 20 13 40 -1 37 -24z m-585 -10 c7 -19 -18 -40 -38 -32 -15 6 -20 28 -8
39 12 12 41 7 46 -7z m112 -16 c0 -18 -6 -26 -23 -28 -24 -4 -38 18 -28 44 3
9 15 14 28 12 17 -2 23 -10 23 -28z m411 -19 c-9 -14 -33 -14 -41 -1 -4 6 -1
18 6 26 11 13 14 13 27 0 8 -8 11 -19 8 -25z m-61 -11 c0 -22 -29 -18 -33 3
-3 14 1 18 15 15 10 -2 18 -10 18 -18z m-140 -34 c0 -52 -63 -62 -73 -12 -7
33 6 47 40 44 29 -3 33 -7 33 -32z m-300 4 c8 -26 -1 -40 -26 -40 -22 0 -34
22 -25 45 8 22 44 18 51 -5z m138 -11 c15 -24 1 -49 -27 -49 -31 0 -48 27 -34
53 11 22 46 19 61 -4z m272 -49 c23 -26 13 -68 -19 -76 -37 -9 -66 12 -66 46
0 47 52 66 85 30z m-367 -12 c18 -18 14 -46 -9 -58 -26 -14 -49 3 -49 35 0 32
35 46 58 23z m163 -8 c23 -13 25 -43 3 -64 -22 -23 -41 -20 -60 9 -16 24 -16
27 1 45 21 23 29 24 56 10z m360 -36 c15 -19 15 -60 -1 -79 -9 -11 -26 -15
-49 -13 -64 5 -78 85 -18 107 26 10 52 4 68 -15z m-447 -40 c20 -19 20 -48 1
-64 -19 -16 -45 -9 -62 17 -13 19 -12 24 6 42 25 25 35 26 55 5z m211 -18 c28
-43 -18 -91 -63 -67 -26 14 -33 45 -15 70 19 29 59 27 78 -3z"/>
</g>
</svg>
