<?xml version="1.0" encoding="UTF-8" standalone="no"?>
<svg xmlns="http://www.w3.org/2000/svg" version="1.1" width="200" height="200" viewBox="0 0 200 200">
  <rect width="100%" height="100%" fill="#0000FF"/>
  <g transform="translate(100,100) scale(0.8) translate(-100,-100)">
    <ns0:metadata xmlns:ns0="http://www.w3.org/2000/svg">
Created by potrace 1.10, written by Peter Selinger 2001-2011
</ns0:metadata>
<ns0:g xmlns:ns0="http://www.w3.org/2000/svg" transform="translate(0.000000,200.000000) scale(0.100000,-0.100000)" fill="#FFFFFF" stroke="none">
<ns0:path d="M1155 1496 c-44 -41 -45 -73 -5 -114 35 -37 36 -39 10 -72 -19 -23 -21 -24 -33 -8 -21 26 -119 88 -142 88 -11 0 -29 7 -40 16 -12 9 -30 12 -48 8 -16 -3 -41 0 -58 6 -24 10 -33 10 -52 -3 -17 -11 -37 -14 -66 -10 -71 10 -114 -50 -75 -105 24 -35 12 -53 -32 -46 -75 12 -124 -82 -71 -137 13 -13 23 -33 22 -44 0 -16 -9 -21 -44 -26 -86 -11 -119 -92 -62 -150 40 -39 82 -39 122 0 16 16 29 36 29 45 0 15 37 32 47 22 4 -3 13 0 21 7 12 10 14 9 9 -8 -13 -48 -20 -92 -19 -125 4 -69 14 -125 27 -140 8 -8 17 -28 21 -45 4 -16 21 -47 38 -68 91 -112 106 -117 162 -62 37 37 51 35 67 -8 3 -9 21 -24 39 -33 48 -22 82 -6 110 51 17 34 28 45 45 45 13 0 23 -6 23 -13 0 -8 12 -25 28 -38 22 -20 34 -23 65 -18 79 13 109 92 55 146 -22 22 -34 25 -81 24 -53 -1 -56 0 -66 29 -9 28 -8 30 17 36 34 7 132 56 132 67 0 4 5 7 11 7 12 0 79 69 79 81 0 4 11 19 25 33 14 14 25 37 25 51 0 15 9 38 20 52 11 14 20 36 20 48 0 22 -35 76 -48 74 -4 -1 -22 -1 -39 0 -39 1 -43 20 -13 58 27 35 25 59 -9 94 -31 31 -77 39 -99 17 -8 -8 -15 -8 -27 2 -19 16 -19 39 0 64 40 52 -14 136 -86 136 -11 0 -36 -15 -54 -34z m105 -16 c39 -39 14 -100 -41 -100 -56 0 -82 73 -37 104 30 21 54 20 78 -4z m-412 -96 c13 -23 3 -52 -20 -59 -22 -8 -48 11 -48 34 0 38 51 56 68 25z m-102 -29 c16 -40 -48 -74 -76 -40 -16 19 -5 62 18 68 21 4 51 -10 58 -28z m198 13 c8 -14 7 -21 -6 -34 -30 -30 -75 9 -48 42 16 18 39 15 54 -8z m74 -36 c3 -18 -1 -22 -22 -22 -19 0 -26 5 -26 18 0 39 43 43 48 4z m258 -27 c15 -23 15 -27 0 -50 -19 -29 -51 -32 -78 -8 -22 20 -23 32 -2 61 21 30 59 29 80 -3z m-196 -4 c0 -24 -25 -34 -40 -16 -15 18 -5 35 21 35 12 0 19 -7 19 -19z m324 -7 c32 -31 8 -84 -38 -84 -29 0 -46 18 -46 50 0 14 5 31 12 38 17 17 54 15 72 -4z m-550 -17 c11 -8 17 -23 14 -38 -2 -19 -9 -24 -33 -24 -24 0 -31 5 -33 23 -3 22 13 52 27 52 4 0 15 -6 25 -13z m106 -18 c13 -24 -2 -49 -31 -49 -22 0 -35 36 -19 55 17 21 37 19 50 -6z m160 1 c0 -21 -24 -28 -35 -10 -8 14 3 30 21 30 8 0 14 -9 14 -20z m-360 -9 c20 -38 -16 -76 -57 -60 -25 9 -31 47 -11 67 18 18 56 14 68 -7z m278 -27 c3 -22 -21 -39 -39 -28 -11 6 -12 38 -2 48 13 13 38 1 41 -20z m138 1 c4 -9 -2 -23 -12 -33 -11 -9 -19 -23 -20 -29 -1 -7 -2 -26 -2 -43 -2 -37 -13 -38 -29 -4 -10 21 -9 30 3 50 9 13 13 28 9 34 -8 14 13 40 32 40 7 0 16 -7 19 -15z m-546 -15 c23 -23 25 -40 8 -62 -23 -28 -48 -29 -73 -3 -26 25 -25 50 3 73 22 17 39 15 62 -8z m676 -1 c8 -14 -11 -33 -25 -25 -11 7 -4 36 9 36 5 0 12 -5 16 -11z m-208 -22 c4 -20 -25 -34 -40 -19 -15 15 -1 44 19 40 10 -2 19 -11 21 -21z m152 -11 c28 -34 -11 -93 -47 -70 -32 20 -39 41 -19 63 22 24 49 27 66 7z m134 -22 c20 -20 20 -27 -3 -55 -16 -21 -22 -22 -45 -11 -17 8 -26 19 -26 35 0 44 43 62 74 31z m-469 -29 c0 -27 -3 -30 -30 -30 -21 0 -31 5 -33 18 -6 33 6 49 35 45 24 -3 28 -8 28 -33z m-109 0 c26 -39 -31 -86 -64 -53 -18 18 -15 55 6 67 23 14 42 10 58 -14z m208 10 c9 -25 -5 -45 -30 -45 -14 0 -27 7 -30 15 -10 25 4 45 30 45 13 0 26 -7 30 -15z m74 -39 c-2 -13 -10 -21 -23 -21 -23 0 -33 34 -14 45 20 13 40 -1 37 -24z m400 22 c16 -16 15 -53 -3 -68 -19 -16 -45 -10 -61 15 -26 39 31 86 64 53z m-804 -34 c21 -20 20 -43 -1 -66 -32 -36 -83 -17 -83 32 0 14 5 31 12 38 17 17 54 15 72 -4z m316 -28 c114 -19 110 -17 100 -35 -5 -9 -27 -36 -49 -61 -23 -25 -41 -53 -41 -63 0 -36 -23 -10 -50 55 -14 36 -32 74 -40 83 -12 15 -12 19 5 31 11 8 23 10 29 5 6 -5 27 -11 46 -15z m215 -6 c9 -15 -14 -50 -33 -50 -39 0 -57 51 -25 69 18 9 46 0 58 -19z m-350 9 c9 -14 -24 -49 -46 -49 -10 0 -29 -5 -43 -11 -20 -9 -29 -9 -41 1 -25 21 -17 30 28 30 31 0 45 5 55 20 13 22 37 26 47 9z m479 -21 c23 -38 -35 -78 -61 -42 -17 23 -16 29 3 49 20 19 43 16 58 -7z m-784 -38 c55 -55 -24 -136 -82 -83 -25 23 -23 68 4 87 30 21 54 20 78 -4z m355 -5 c0 -22 -31 -33 -47 -17 -17 17 -1 44 24 40 15 -2 23 -10 23 -23z m530 9 c19 -20 16 -43 -7 -58 -38 -23 -78 35 -42 61 23 17 29 16 49 -3z m-615 -45 c0 -12 -7 -19 -19 -19 -26 0 -36 17 -21 35 15 18 40 8 40 -16z m324 9 c8 -14 7 -21 -6 -34 -30 -30 -75 9 -48 42 16 18 39 15 54 -8z m-406 -21 c2 -12 -3 -17 -17 -17 -12 0 -21 6 -21 13 0 31 32 34 38 4z m539 7 c7 -18 -6 -45 -24 -51 -6 -2 -18 3 -27 12 -12 12 -13 21 -6 36 13 23 48 25 57 3z m-349 -35 c4 -30 -22 -46 -44 -28 -17 14 -18 46 -1 52 25 11 42 1 45 -24z m150 -23 c-2 -13 -10 -21 -23 -21 -23 0 -33 34 -14 45 20 13 40 -1 37 -24z m305 12 c8 -12 7 -21 -2 -32 -18 -22 -38 -20 -51 5 -22 40 29 66 53 27z m-563 -4 c11 -12 11 -18 -2 -30 -18 -18 -48 -8 -48 15 0 33 28 42 50 15z m-90 -13 c0 -24 -25 -34 -40 -16 -15 18 -5 35 21 35 12 0 19 -7 19 -19z m480 4 c10 -12 10 -18 0 -30 -16 -19 -39 -19 -46 0 -6 15 11 45 26 45 4 0 13 -7 20 -15z m-242 -37 c31 -31 3 -76 -39 -63 -33 11 -18 75 16 75 6 0 16 -5 23 -12z m180 -16 c3 -16 -2 -22 -17 -22 -26 0 -36 17 -20 36 16 19 33 13 37 -14z m167 -3 c0 -17 -6 -24 -20 -24 -23 0 -33 34 -13 46 20 13 33 5 33 -22z m-585 -5 c11 -12 10 -18 -3 -31 -8 -9 -23 -13 -31 -10 -19 8 -21 43 -3 50 20 9 24 8 37 -9z m314 10 c9 -3 13 -11 9 -17 -4 -6 0 -8 9 -4 10 3 27 -7 47 -28 42 -47 41 -66 -3 -49 -9 3 -16 11 -16 18 0 6 -12 20 -26 31 -23 17 -51 55 -40 55 2 0 11 -3 20 -6z m-199 -34 c0 -30 -35 -40 -55 -15 -10 12 -10 18 0 30 20 25 55 15 55 -15z m410 -6 c0 -10 -8 -20 -18 -22 -22 -4 -35 27 -16 39 20 12 34 5 34 -17z m-57 -21 c-2 -10 -10 -18 -18 -18 -8 0 -16 8 -18 18 -2 12 3 17 18 17 15 0 20 -5 18 -17z m-149 -12 c25 -25 17 -59 -15 -67 -14 -4 -31 -1 -39 6 -20 17 -19 57 3 69 24 14 29 14 51 -8z m-292 -17 c7 -18 -6 -45 -24 -51 -6 -2 -18 3 -27 12 -12 12 -13 21 -6 36 13 23 48 25 57 3z m137 -10 c10 -27 7 -43 -13 -54 -15 -7 -24 -5 -41 8 -19 16 -21 22 -11 40 14 26 56 30 65 6z m270 -50 c9 -8 16 -24 16 -34 0 -40 -60 -66 -88 -38 -15 15 -15 61 0 76 17 17 54 15 72 -4z m-366 -16 c28 -28 1 -75 -37 -63 -24 7 -31 24 -20 53 9 24 38 29 57 10z m170 -10 c27 -27 4 -78 -37 -78 -14 0 -41 29 -41 45 0 35 53 58 78 33z m347 -33 c14 -13 25 -31 25 -38 0 -27 -35 -59 -65 -59 -30 0 -65 32 -65 59 0 19 45 63 65 63 9 0 27 -11 40 -25z m-444 -35 c38 -21 18 -80 -28 -80 -33 0 -49 35 -28 66 17 27 27 29 56 14z m224 -28 c14 -37 -27 -79 -65 -67 -45 14 -49 79 -7 94 25 10 63 -5 72 -27z" />
</ns0:g>

  </g>
</svg>
